<svg width="24" height="24" viewBox="0 0 24 24" fill="none" xmlns="http://www.w3.org/2000/svg">
<path fill-rule="evenodd" clip-rule="evenodd" d="M2.5 11.5C2.5 11.2239 2.72386 11 3 11L21 11C21.2761 11 21.5 11.2239 21.5 11.5C21.5 11.7761 21.2761 12 21 12L3 12C2.72386 12 2.5 11.7761 2.5 11.5Z" fill="#333333"/>
<path fill-rule="evenodd" clip-rule="evenodd" d="M2.5 15.5C2.5 15.2239 2.72386 15 3 15L21 15C21.2761 15 21.5 15.2239 21.5 15.5C21.5 15.7761 21.2761 16 21 16L3 16C2.72386 16 2.5 15.7761 2.5 15.5Z" fill="#333333"/>
<path fill-rule="evenodd" clip-rule="evenodd" d="M2.5 7.5C2.5 7.22386 2.72386 7 3 7L21 7C21.2761 7 21.5 7.22386 21.5 7.5C21.5 7.77614 21.2761 8 21 8L3 8C2.72386 8 2.5 7.77614 2.5 7.5Z" fill="#333333"/>
</svg>
