<?xml version="1.0" standalone="no"?>
<!DOCTYPE svg PUBLIC "-//W3C//DTD SVG 20010904//EN"
 "http://www.w3.org/TR/2001/REC-SVG-20010904/DTD/svg10.dtd">
<svg version="1.0" xmlns="http://www.w3.org/2000/svg"
 width="94.000000pt" height="94.000000pt" viewBox="0 0 94.000000 94.000000"
 preserveAspectRatio="xMidYMid meet">
<metadata>
Created by potrace 1.11, written by Peter Selinger 2001-2013
</metadata>
<g transform="translate(0.000000,94.000000) scale(0.100000,-0.100000)"
fill="#000000" stroke="none">
<path d="M109 900 c-1 -52 -1 -572 0 -595 1 -17 9 -20 47 -23 43 -2 46 -1 33
15 -13 17 -13 17 7 0 24 -20 69 -24 58 -4 -6 10 -4 10 7 0 7 -7 24 -13 37 -13
22 0 23 2 11 18 -13 16 -13 16 7 0 24 -21 69 -25 58 -5 -6 10 -4 10 7 0 7 -7
24 -13 37 -13 16 0 21 4 16 13 -6 10 -4 10 7 0 7 -7 24 -13 37 -13 16 0 21 4
16 13 -6 9 -4 9 7 -1 18 -16 63 -16 53 1 -6 10 -4 10 7 0 17 -17 63 -17 53 -1
-5 7 -3 8 7 2 8 -4 34 -10 57 -12 33 -2 42 0 36 10 -5 10 -4 11 7 1 7 -7 24
-13 37 -13 16 0 21 4 16 13 -6 10 -4 10 7 0 7 -7 21 -13 31 -13 16 0 17 21 15
327 l-2 327 -177 0 c-98 1 -178 -3 -178 -7 0 -5 -5 -5 -12 -1 -6 4 -87 8 -180
8 l-168 1 -1 -35z m66 -40 c-3 -5 -12 -10 -18 -10 -7 0 -6 4 3 10 19 12 23 12
15 0z"/>
<path d="M111 216 c-5 -6 -8 -40 -7 -76 1 -64 2 -65 30 -68 46 -6 75 6 90 37
29 55 -1 107 -66 114 -21 2 -42 -1 -47 -7z m87 -66 c4 -26 -6 -39 -36 -45 -20
-3 -22 0 -22 39 0 23 3 46 7 49 11 12 48 -19 51 -43z"/>
<path d="M257 216 c-2 -6 -3 -40 -2 -76 l1 -65 43 0 c50 0 69 22 24 27 -37 4
-46 38 -9 38 24 0 44 16 32 27 -3 3 -17 6 -31 6 -15 0 -25 5 -25 14 0 8 5 11
10 8 15 -9 50 4 50 19 0 15 -88 17 -93 2z"/>
<path d="M379 223 c-13 -3 -16 -17 -15 -76 1 -68 2 -72 25 -75 40 -6 70 7 77
33 3 14 1 32 -6 40 -6 8 -9 23 -6 33 10 30 -32 55 -75 45z m41 -43 c0 -5 -4
-10 -10 -10 -5 0 -10 5 -10 10 0 6 5 10 10 10 6 0 10 -4 10 -10z m8 -64 c3
-12 -1 -17 -10 -14 -7 3 -15 13 -16 22 -3 12 1 17 10 14 7 -3 15 -13 16 -22z"/>
<path d="M509 221 c-29 -9 -38 -34 -23 -63 13 -25 13 -32 -1 -58 -15 -29 -15
-30 5 -30 12 0 25 10 33 26 l12 27 5 -24 c5 -19 13 -24 41 -26 l36 -2 -1 77
-1 77 -46 0 c-26 1 -53 -1 -60 -4z m27 -48 c-10 -10 -19 5 -10 18 6 11 8 11
12 0 2 -7 1 -15 -2 -18z"/>
<path d="M646 221 c-2 -3 -3 -39 -4 -78 l0 -73 43 0 c24 0 46 4 50 9 7 12 -25
30 -42 24 -8 -3 -13 4 -13 16 0 17 6 21 30 21 22 0 28 4 24 15 -4 8 -17 15
-30 15 -14 0 -24 6 -24 15 0 9 6 12 15 9 22 -9 46 3 39 19 -5 14 -81 21 -88 8z"/>
<path d="M764 223 c-6 -5 -10 -38 -10 -78 1 -58 4 -70 19 -73 14 -3 17 4 17
32 0 32 3 36 25 36 16 0 25 6 25 15 0 9 -9 15 -25 15 -28 0 -35 19 -7 21 9 1
21 1 25 0 5 -1 7 6 5 16 -3 18 -55 29 -74 16z"/>
<path d="M117 54 c-4 -4 -7 -17 -7 -28 1 -19 1 -20 11 -3 11 19 8 43 -4 31z"/>
<path d="M160 36 c0 -14 5 -26 10 -26 6 0 10 9 10 19 0 11 -4 23 -10 26 -6 4
-10 -5 -10 -19z"/>
<path d="M260 35 c0 -14 4 -25 9 -25 4 0 6 11 3 25 -6 32 -12 32 -12 0z"/>
<path d="M418 42 c-4 -12 -2 -24 2 -27 13 -8 18 8 10 29 -6 19 -7 19 -12 -2z"/>
<path d="M540 36 c0 -14 5 -26 10 -26 6 0 10 9 10 19 0 11 -4 23 -10 26 -6 4
-10 -5 -10 -19z"/>
<path d="M718 35 c6 -32 12 -32 12 0 0 14 -4 25 -9 25 -4 0 -6 -11 -3 -25z"/>
<path d="M210 30 c0 -26 16 -26 23 0 3 13 0 20 -9 20 -8 0 -14 -9 -14 -20z"/>
<path d="M305 40 c-3 -5 -1 -10 5 -10 6 0 8 -4 5 -10 -7 -11 8 -14 18 -4 7 8
-3 34 -13 34 -5 0 -12 -4 -15 -10z"/>
<path d="M360 32 c0 -24 26 -24 27 0 1 10 -5 18 -13 18 -8 0 -14 -8 -14 -18z"/>
<path d="M592 30 c0 -14 2 -19 5 -12 2 6 2 18 0 25 -3 6 -5 1 -5 -13z"/>
<path d="M624 39 c-3 -6 -1 -16 5 -22 6 -6 11 -9 12 -6 0 2 2 12 4 22 4 19
-10 23 -21 6z"/>
<path d="M682 30 c0 -14 2 -19 5 -12 2 6 2 18 0 25 -3 6 -5 1 -5 -13z"/>
<path d="M760 32 c0 -10 6 -19 14 -19 8 0 11 8 8 19 -2 10 -8 18 -13 18 -5 0
-9 -8 -9 -18z"/>
<path d="M814 39 c-3 -6 -2 -15 3 -20 5 -5 9 -1 10 11 2 22 -2 25 -13 9z"/>
</g>
</svg>
